<?xml version="1.0" encoding="UTF-8"?><svg xmlns="http://www.w3.org/2000/svg" viewBox="0 0 1228.79 870.68"><defs><style>.cls-1{fill:#f0f0f0;}.cls-2,.cls-3{fill:#fff;}.cls-4{font-size:26.08px;}.cls-4,.cls-5{fill:#6695ff;}.cls-4,.cls-3{font-family:Kanit-Bold, 'Kanit Bold';}.cls-6{fill:#8cb0ff;}.cls-7{letter-spacing:-.04em;}.cls-8{fill:#455a64;}.cls-9{fill:#244a96;}.cls-10{isolation:isolate;}.cls-11{fill:#e0e0e0;}.cls-12{fill:#d8dce5;}.cls-13{fill:#9fc2ff;}.cls-14{fill:#eb996e;}.cls-15{fill:#ffbe9d;}.cls-3{font-size:14.31px;}.cls-16{fill:#afafaf;}.cls-17{fill:#a6aaad;}.cls-18{mix-blend-mode:multiply;}.cls-19{fill:#355eaf;}.cls-20{fill:#dd8762;}.cls-21{fill:#3362cc;}.cls-22{fill:#263238;}</style></defs><g class="cls-10"><g id="BACKGROUND" class="cls-18"><rect class="cls-2" x="728.79" y="370.68" width="500" height="500"/></g><g id="OBJECTS"><path class="cls-12" d="M23.08,243.85S-1.01,211.44,7.3,168.25c8.89-46.18,66.49-52.49,94.94-97.04,28.45-44.55,76.06-61.7,125.57-53.59,60.83,9.96,67.96,92.22,89.88,113.79,21.93,21.57,59.21,77,15.84,112.44H23.08Z"/><path class="cls-17" d="M332.17,244.35H24.11c-.41,0-.8-.2-1.04-.54l-.33-.46H334.14l-.68,.54c-.37,.3-.83,.46-1.3,.46Z"/><g><rect class="cls-1" y="24.16" width="168.41" height="243.26" rx="5" ry="5"/><rect class="cls-2" x="8.71" y="65.65" width="93.24" height="135.57"/><g><path class="cls-5" d="M163.41,24.16H5C2.24,24.16,0,26.4,0,29.16v28.77H168.41V29.16c0-2.76-2.24-5-5-5Z"/><g><text class="cls-4" transform="translate(18.64 94.27)"><tspan x="0" y="0">T</tspan></text><rect class="cls-8" x="37.08" y="79" width="55.04" height="2.8"/><rect class="cls-8" x="37.08" y="84.76" width="37.08" height="2.8"/><rect class="cls-8" x="37.08" y="90.79" width="55.04" height="2.8"/><rect class="cls-8" x="18.54" y="96.85" width="73.59" height="2.8"/><rect class="cls-8" x="18.54" y="102.81" width="62.77" height="2.8"/><rect class="cls-8" x="18.54" y="108.77" width="68.69" height="2.8"/><rect class="cls-8" x="18.54" y="151.5" width="73.59" height="2.8"/><rect class="cls-8" x="18.54" y="157.47" width="62.77" height="2.8"/><rect class="cls-8" x="18.54" y="163.43" width="68.69" height="2.8"/><rect class="cls-8" x="18.54" y="175.1" width="62.77" height="2.8"/><rect class="cls-8" x="18.54" y="181.06" width="68.69" height="2.8"/><rect class="cls-5" x="18.63" y="115.72" width="73.49" height="31.13"/></g><rect class="cls-5" x="107.96" y="65.65" width="53.77" height="13.36"/><rect class="cls-5" x="107.96" y="165.15" width="53.77" height="13.36"/><rect class="cls-5" x="8.71" y="206.8" width="153.03" height="13.36"/><rect class="cls-16" x="107.96" y="81.88" width="53.77" height="79.39"/><path class="cls-16" d="M8.71,220.16H161.74v27.51c0,4.91-3.99,8.9-8.9,8.9H17.61c-4.91,0-8.9-3.99-8.9-8.9v-27.51h0Z"/><text class="cls-3" transform="translate(13.08 46.63)"><tspan x="0" y="0">B</tspan><tspan class="cls-7" x="7.75" y="0">L</tspan><tspan x="13.95" y="0">OG</tspan></text></g></g><g><g><path class="cls-20" d="M358.14,114.37v-2.7c1.21-.26,3.49-.88,3.19-1.81-.4-1.26-3.17-.93-3.17-.93,0,0,3.63-.41,3.12-1.92-.36-1.06-2.13-1.27-3.14-1.31v-.34c2.46-.43,3.21-1.93,2.79-3-.43-1.07-2.79-.86-2.79-.86,0,0-3,12.21-3,12.53s1.71,4.39,3,4.18c1.29-.21,3.96-1.93,2.9-3.43-1.06-1.5-2.9-.43-2.9-.43Z"/><g><path class="cls-8" d="M342.42,128.02c0,.35,.27,.63,.62,.63h13.98c.78,0,1.41-.62,1.43-1.4l.32-34.73c0-.69-.33-1.33-.91-1.71h0c-.12-.08-.26-.12-.41-.1l-13.77,1.43c-.31,.03-.55,.29-.55,.6l-.71,35.27Z"/><path class="cls-13" d="M355.52,94v31.37c0,.35-.29,.64-.64,.64l-9.84-.13c-.35,0-.64-.29-.64-.64l.32-30.48c0-.33,.25-.6,.57-.63l9.52-.76c.38-.04,.71,.25,.71,.63Z"/><path class="cls-22" d="M357.86,90.82c-.12-.08-.26-.12-.41-.1h-.13l-.4,37.93h.09c.78,0,1.41-.62,1.43-1.4l.32-34.73c0-.69-.33-1.33-.91-1.71Z"/><path class="cls-22" d="M345.5,93.06c0,.27-.18,.49-.39,.49s-.39-.22-.39-.49,.18-.49,.39-.49,.39,.22,.39,.49Z"/><path class="cls-22" d="M347.22,93.22c-.19,0-.36-.15-.37-.34-.02-.21,.14-.39,.34-.4l5.51-.46c.22-.02,.39,.14,.41,.34,.02,.21-.14,.39-.34,.4l-5.51,.46h-.03Z"/></g><path class="cls-15" d="M345.48,128.65c1.68-3.26,1.14-6.51,1.2-8.15,.06-1.71,3.16-5.44,3.56-8.96,.4-3.52-1.71-5.03-2.92-2.72s-4.43,6.14-4.43,6.14v-10.47s-.97,1.1-1.78,1.7c-.81,.6-4.48,4.06-4.38,9.17,.1,5.11-.99,15.2-1.89,17.92s-2.52,4.63-2.52,4.63l8.98,4.43s3.9-1.81,5.37-3.12,2.15-6.64,2.15-6.64l1.46-3.93h-4.81Z"/><polygon class="cls-20" points="350.29 128.65 345.48 128.65 349.52 130.71 350.29 128.65"/><path class="cls-20" d="M340.57,120.75c-.15-1.09,.06-2.17,.44-3.18,.39-1,1-1.96,1.88-2.61-.41,1.01-.82,1.92-1.18,2.88-.38,.95-.71,1.91-1.14,2.91Z"/><path class="cls-20" d="M346.71,122.23c.54,1.81,.29,3.79-.33,5.57-.35,.88-.74,1.75-1.3,2.52-.52,.79-1.17,1.48-1.87,2.09,.48-.81,.95-1.59,1.37-2.39,.43-.8,.78-1.63,1.09-2.47,.31-.84,.54-1.71,.72-2.6,.17-.89,.3-1.79,.31-2.72Z"/></g><path class="cls-21" d="M345.1,142.93l-11.23-6.09c-.75-.41-1.69-.18-2.16,.53l-15.96,23.7c-1.37,2.13-2,2.41-4.12,1.02l-16.43-8.36c-10-4.64-16.69-9.19-26.44-9.19h-11.72s-.52-.01-1.46,0c-19.17,.36-35.96,12.98-41.85,31.23l-20.68,64.07h17.84l21.74-62.11-.59,62.11h51.67v-67.13l13.38,5.88c8.42,4.39,21.76,9.67,29.02-3.06,.32-.55,.63-1.11,.98-1.64l18.62-28.61c.53-.81,.25-1.9-.6-2.36Z"/><path class="cls-14" d="M241.63,126.36v21.57h.03c.33,8.23,7.08,14.8,15.39,14.8s15.06-6.57,15.39-14.8h.03v-21.57h-30.84Z"/><path class="cls-22" d="M220.74,102.62s-6.44-6.93-6.44-25.4,15.88-31,30.48-32.19c14.59-1.19,16.98-6.85,20.25-4.17s-6.36,8.64-6.36,8.64c0,0,27.51-10.42,30.78-6.85,3.28,3.57-10.72,8.64-10.72,8.64,0,0,16.76,4.28,19.74,13.21,2.98,8.93-4.85,9.23-4.85,9.23,0,0,5.53,14.27-1.4,33.65-7.54,21.1-55.19,23.43-56.08,22.84-.89-.6-15.39-27.6-15.39-27.6Z"/><path class="cls-15" d="M288.71,98.25s-.05,0-.08,0c-.05,.96-.09,1.56-.09,1.56l-1.25,10.03c-.18,1.45-2.12,1.83-2.81,.54-1.69-3.17-3.28-8.92-.91-17.89-1.34-2.17-2.33-4.55-2.9-7.07l-.34-1.52c-6.75,1.75-7.07,.03-11.57-2.01-.03-.02-.08,.02-.05,.05,1.68,1.51,6.22,6.06,2.98,8.57-3.58,2.78-15.19-6.63-17.46-8.21-.09-.06-.21,.03-.17,.13,.53,1.42,2.17,6.35-.21,7.19-3.65,1.29-10.32-8.8-12.22-11.82-.1-.16-.35-.06-.31,.12,.37,1.99,.88,6.48-1.63,7.57-2.35,1.03-4.91-3.89-6.15-6.69-.2-.45-.86-.34-.91,.15-.51,4.26-2.04,8.35-3.64,11.65,3.13,10.06,1.43,16.38-.37,19.77-.69,1.29-2.63,.91-2.81-.54l-1.25-10.03s-.04-.59-.09-1.55c-6.37,.09-11.5,5.27-11.5,11.66s5.22,11.66,11.66,11.66c.14,0,.28-.02,.43-.02,2.63,15.07,15.76,27.54,31.59,27.54s28.97-12.46,31.59-27.54c.16,0,.32,.02,.49,.02,6.44,0,11.66-5.22,11.66-11.66s-5.22-11.66-11.66-11.66Z"/><g><path class="cls-22" d="M246.05,124.78c1.93,1.81,3.88,3.41,6.1,4.5,1.09,.58,2.27,.93,3.47,1.18,1.22,.28,2.48,.24,3.82,.27-1.2,.54-2.56,.92-3.94,.82-1.37-.04-2.75-.39-3.98-1.01-1.22-.63-2.34-1.44-3.27-2.43-.93-.98-1.72-2.09-2.21-3.33Z"/><g><g><path class="cls-22" d="M242.51,106.58c0,1.51-1.22,2.73-2.73,2.73s-2.73-1.22-2.73-2.73,1.22-2.73,2.73-2.73,2.73,1.22,2.73,2.73Z"/><path class="cls-22" d="M237.06,103.85c-.12-1.15,.61-2.33,1.6-3.04,1.01-.71,2.23-1.01,3.39-1.05,.57-.05,1.22,.03,1.82,.17,.6,.18,1.18,.45,1.67,.84,.97,.79,1.58,1.93,1.57,3.08-.75-.85-1.55-1.44-2.37-1.81-.84-.35-1.67-.46-2.62-.42-.96,.02-1.89,.13-2.75,.45-.85,.32-1.67,.85-2.3,1.79Z"/><path class="cls-22" d="M235.67,97.36c1.82-.33,5.47-.83,10.61-.71,.61,.01,1.02-.48,.71-.87-.79-.98-2.54-2.38-6.04-2.15-3.96,.26-5.55,1.83-6.19,2.93-.26,.45,.27,.93,.91,.81Z"/></g><g><path class="cls-22" d="M265.76,106.58c0,1.51,1.22,2.73,2.73,2.73s2.73-1.22,2.73-2.73-1.22-2.73-2.73-2.73-2.73,1.22-2.73,2.73Z"/><path class="cls-22" d="M275.81,103.85c.12-1.15-.61-2.33-1.6-3.04-1.01-.71-2.23-1.01-3.39-1.05-.57-.05-1.22,.03-1.82,.17-.6,.18-1.18,.45-1.67,.84-.97,.79-1.58,1.93-1.57,3.08,.75-.85,1.55-1.44,2.37-1.81,.84-.35,1.67-.46,2.62-.42,.96,.02,1.89,.13,2.75,.45,.85,.32,1.67,.85,2.3,1.79Z"/><path class="cls-22" d="M276.02,97.36c-1.82-.33-5.47-.83-10.61-.71-.61,.01-1.02-.48-.71-.87,.79-.98,2.54-2.38,6.04-2.15,3.96,.26,5.55,1.83,6.19,2.93,.26,.45-.27,.93-.91,.81Z"/></g></g><path class="cls-22" d="M257.32,104.51c.97,2.05,1.81,4.15,2.6,6.26,.8,2.11,1.52,4.24,2.23,6.38l.5,1.61c.21,.64,.23,1.41,.01,2.07-.43,1.34-1.78,2.32-3.15,2.25-2.27-.1-4.51-.25-6.77-.55,2.25-.29,4.51-.44,6.75-.55,.9-.07,1.69-.71,1.9-1.54,.1-.41,.1-.83-.05-1.26l-.53-1.6c-.68-2.15-1.34-4.3-1.93-6.48-.59-2.18-1.14-4.37-1.56-6.6Z"/><path class="cls-20" d="M221.84,102.97c-1.54,.63-2.88,1.62-3.81,2.89-.95,1.26-1.33,2.83-1.33,4.39-.03,1.58,.38,3.14,1.27,4.42,.9,1.27,2.3,2.23,3.87,2.73-1.65-.14-3.32-.92-4.45-2.28-1.14-1.35-1.65-3.15-1.62-4.87,.01-1.72,.51-3.54,1.7-4.85,1.13-1.33,2.74-2.16,4.38-2.44Z"/><path class="cls-20" d="M291.01,117.41c1.53-.63,2.88-1.62,3.81-2.89,.95-1.26,1.33-2.83,1.33-4.39,.03-1.58-.38-3.14-1.27-4.42-.9-1.27-2.3-2.23-3.87-2.73,1.65,.14,3.32,.92,4.45,2.28,1.14,1.35,1.65,3.15,1.62,4.87-.01,1.72-.51,3.54-1.7,4.85-1.13,1.33-2.74,2.16-4.38,2.44Z"/></g><g><path class="cls-8" d="M255.74,83.4c1.61,1.08,3.2,2.15,4.87,3.12,1.64,.99,3.32,1.91,5.05,2.68,.86,.38,1.74,.7,2.62,.93,.87,.22,1.78,.31,2.49,.1,.33-.13,.63-.28,.83-.55,.21-.29,.36-.59,.38-.94,.07-.7-.22-1.55-.64-2.34-.83-1.6-2.05-3.07-3.32-4.47-1.26-1.42-2.64-2.74-4.03-4.07-2.8-2.61-5.7-5.15-8.66-7.65,3.3,2.02,6.46,4.27,9.44,6.77,1.5,1.24,2.93,2.56,4.29,3.97,1.34,1.43,2.64,2.93,3.61,4.75,.45,.92,.88,1.96,.76,3.19-.05,.61-.34,1.22-.72,1.69-.39,.5-.98,.83-1.55,1-1.17,.28-2.25,.08-3.22-.19-.98-.28-1.9-.69-2.78-1.14-3.5-1.82-6.57-4.23-9.41-6.85Z"/><path class="cls-8" d="M268.46,81.36c1.25,.76,2.51,1.37,3.82,1.79,1.3,.41,2.63,.68,3.98,.65,.33,.04,.67-.03,1-.03,.34,0,.67-.04,1-.11,.33-.06,.67-.09,1-.16,.33-.1,.66-.18,.99-.27,.34-.07,.66-.19,.99-.31l1-.35c.66-.26,1.3-.57,2-.82-.51,.51-1.06,1.01-1.65,1.46-.63,.37-1.23,.85-1.94,1.11-1.35,.68-2.89,.94-4.42,.97-1.54,0-3.06-.39-4.41-1.08-1.35-.68-2.54-1.65-3.37-2.87Z"/><path class="cls-8" d="M248.89,74.61c1.1,.86,2.05,1.88,2.91,2.97,.87,1.08,1.62,2.26,2.27,3.5,.62,1.26,1.16,2.59,1.37,4.02,.11,.71,.13,1.46,0,2.18-.14,.72-.45,1.43-.97,1.91,.48-1.33,.21-2.61-.17-3.83-.4-1.23-.95-2.43-1.56-3.6-1.2-2.37-2.61-4.66-3.85-7.15Z"/><path class="cls-8" d="M268.06,50c1.19-.16,2.4-.15,3.61-.14,1.2,.06,2.41,.17,3.61,.34,2.4,.33,4.76,.91,7.05,1.72,2.28,.83,4.51,1.78,6.58,3.05,1.06,.59,2.04,1.29,3.04,1.97,.97,.71,1.89,1.5,2.8,2.28-2.05-1.26-4.06-2.53-6.21-3.57-2.11-1.08-4.31-1.99-6.54-2.78-2.23-.81-4.53-1.4-6.85-1.91-2.33-.49-4.69-.83-7.09-.96Z"/><path class="cls-8" d="M293.62,73.73c-1.7,.71-3.58,.91-5.41,.93-1.85,.02-3.68-.24-5.48-.62-1.8-.4-3.54-.99-5.22-1.71-.84-.35-1.65-.79-2.46-1.2-.79-.46-1.57-.94-2.32-1.46,.89,.22,1.75,.51,2.61,.78l2.57,.78c.87,.22,1.7,.52,2.57,.71,.85,.24,1.71,.45,2.58,.63,1.72,.39,3.46,.7,5.22,.91,1.76,.19,3.53,.33,5.35,.23Z"/><path class="cls-8" d="M237.05,84.57c-1.1-.84-1.96-1.96-2.69-3.13-.74-1.17-1.31-2.43-1.81-3.72-.49-1.29-.86-2.62-1.15-3.96-.14-.67-.24-1.35-.34-2.03-.05-.69-.13-1.37-.15-2.05,.44,1.3,.84,2.6,1.25,3.88,.44,1.28,.83,2.56,1.33,3.81,.47,1.25,.98,2.49,1.56,3.7,.6,1.19,1.2,2.4,2.01,3.5Z"/></g></g><g><path class="cls-8" d="M313.09,268.48h-115.53c-3.7,0-6.81-2.79-7.22-6.47l-6.41-58.6c-.47-4.3,2.89-8.05,7.22-8.05h128.35c4.32,0,7.69,3.75,7.22,8.05l-6.41,58.6c-.4,3.68-3.51,6.47-7.22,6.47Z"/><path class="cls-22" d="M326.45,200.56c-.88-2.98-3.63-5.2-6.96-5.2H191.15c-3.32,0-6.07,2.22-6.96,5.2h142.26Z"/><path class="cls-11" d="M261.63,235.23c0,3.48-2.82,6.3-6.3,6.3s-6.3-2.82-6.3-6.3,2.82-6.3,6.3-6.3,6.3,2.82,6.3,6.3Z"/></g><g><g><rect class="cls-5" x="181.45" width="64.6" height="36.65"/><g><circle class="cls-9" cx="213.75" cy="17.81" r="9.67" transform="translate(10.55 86.48) rotate(-23.43)"/><path class="cls-1" d="M212.01,15.74v4.51c0,.79,.9,1.24,1.53,.76l3-2.3c.5-.39,.5-1.14-.01-1.52l-3-2.21c-.63-.46-1.52-.02-1.52,.77Z"/></g><g><path class="cls-9" d="M239.69,32.24h-53.78c-.41,0-.74-.33-.74-.74h0c0-.41,.33-.74,.74-.74h53.78c.41,0,.74,.33,.74,.74h0c0,.41-.33,.74-.74,.74Z"/><path class="cls-1" d="M239.69,30.75h-37.49v1.48h37.49c.41,0,.74-.33,.74-.74h0c0-.41-.33-.74-.74-.74Z"/><path class="cls-9" d="M202.13,30.75h-16.22c-.41,0-.74,.33-.74,.74h0c0,.41,.33,.74,.74,.74h16.22v-1.48Z"/><g><path class="cls-9" d="M204.08,31.49c0,1.02-.83,1.85-1.85,1.85s-1.85-.83-1.85-1.85,.83-1.85,1.85-1.85,1.85,.83,1.85,1.85Z"/><path class="cls-6" d="M203.11,31.49c0,.49-.39,.88-.88,.88s-.88-.39-.88-.88,.39-.88,.88-.88,.88,.39,.88,.88Z"/></g></g></g><g><path class="cls-5" d="M294.08,225.44v21.03c0,1.82,1.47,3.29,3.29,3.29h38.25c.72,0,1.43,.24,2,.68l8.4,6.42c2.17,1.66,5.29,.11,5.29-2.62v-28.81c0-1.82-1.47-3.29-3.29-3.29h-50.65c-1.82,0-3.29,1.47-3.29,3.29Z"/><g><circle class="cls-1" cx="313.92" cy="236.37" r="2.19"/><path class="cls-1" d="M325.64,236.37c0,1.21-.98,2.19-2.19,2.19s-2.19-.98-2.19-2.19,.98-2.19,2.19-2.19,2.19,.98,2.19,2.19Z"/><path class="cls-1" d="M335.16,236.37c0,1.21-.98,2.19-2.19,2.19s-2.19-.98-2.19-2.19,.98-2.19,2.19-2.19,2.19,.98,2.19,2.19Z"/></g></g><g><path class="cls-5" d="M373.31,59.6v21.83c0,1.6-1.29,2.89-2.89,2.89h-43.37c-.63,0-1.25,.21-1.76,.59l-9.15,7c-1.9,1.45-4.65,.1-4.65-2.3v-30.02c0-1.6,1.29-2.89,2.89-2.89h56.04c1.6,0,2.89,1.29,2.89,2.89Z"/><g><path class="cls-19" d="M328.38,70.42c0,3.14-2.54,5.68-5.68,5.68s-5.68-2.54-5.68-5.68,2.54-5.68,5.68-5.68,5.68,2.54,5.68,5.68Z"/><g><path class="cls-2" d="M332.49,68.6l.94-2.76h1.51l-.74,2.76h-1.7Zm2.12,0l.94-2.76h1.51l-.74,2.76h-1.7Z"/><path class="cls-2" d="M360.83,75.54l.94-2.76h1.51l-.74,2.76h-1.7Zm2.12,0l.94-2.76h1.51l-.74,2.76h-1.7Z"/><rect class="cls-9" x="338.11" y="66.79" width="29.31" height="1.31"/><rect class="cls-9" x="332.49" y="69.97" width="33.3" height="1.31"/><rect class="cls-9" x="332.49" y="73.14" width="27.45" height="1.31"/></g></g></g><g><rect class="cls-5" x="120.98" y="109.62" width="71.61" height="40.63"/><rect class="cls-19" x="124.36" y="113.26" width="64.3" height="33.17"/><path class="cls-9" d="M124.36,146.43l18.22-24.46c1.98-2.66,5.96-2.68,7.97-.04l13.37,17.57,7.37-6.93c2.16-2.03,5.61-1.74,7.4,.63l9.98,13.23H124.36Z"/><path class="cls-2" d="M169.81,123.43c0,2.93-2.37,5.3-5.3,5.3s-5.3-2.37-5.3-5.3,2.37-5.3,5.3-5.3,5.3,2.37,5.3,5.3Z"/></g></g></g></g></svg>