<svg xmlns="http://www.w3.org/2000/svg" width="350.4" height="100.472" viewBox="0 0 350.4 100.472">
<g id="Group_37" data-name="Group 37" transform="translate(-227.584 -284)">
  <!-- <g id="Group_23" data-name="Group 23" transform="translate(227.584 284)">
    <path id="Path_12" data-name="Path 12" d="M408.5,245.955l-47.826-7.192a1.409,1.409,0,0,0-1.217,2.32l9.425,10.964c-91,48.827-214.147,15.025-249.186,3.728a1.408,1.408,0,0,0-1.188,2.528C146.67,276.2,243.083,326.1,378.392,274.67l.935,11.041a1.409,1.409,0,0,0,2.467.806l27.623-38.235A1.409,1.409,0,0,0,408.5,245.955Z" transform="translate(-95.742 -110.487)" fill="#232323"></path>
    <path id="Path_13" data-name="Path 13" d="M332.014,256.7l-.037-.043a12.512,12.512,0,0,1,10.807-20.6l33.654,3.577V163.208h-85.9V269.62A205.252,205.252,0,0,0,332.014,256.7Z" transform="translate(-76.679 -118.165)" fill="#0994ff"></path>
    <path id="Path_16" data-name="Path 16" d="M375.523,167.568l38.122-43.3H328.66l-38.122,43.3Z" transform="translate(-75.775 -124.266)" fill="#2784fb"></path><path id="Path_120" data-name="Path 120" d="M115.563,145.88l15.027,19.034H302.81l1.43,1.835H131.127l.622,93.01c23.41,7.089,71.542,19.371,123.927,19.371a287.187,287.187,0,0,0,49.188-4.041l-.624-108.34-33.321-42.483H97.8l12.608,16.057Z" transform="translate(-97.802 -121.688)" fill="#232323"></path>
  </g> -->
  <g id="Group_24" data-name="Group 24" transform="translate(231.167 285.669)">
    <path id="Path_121" data-name="Path 121" d="M-128.24,5.264a18.32,18.32,0,0,1-5.488,3.164,17.555,17.555,0,0,1-6.216,1.2,12.556,12.556,0,0,1-7.476-2.38A15.289,15.289,0,0,1-152.544.784a22.4,22.4,0,0,1-10.444-3,19.587,19.587,0,0,1-7.224-7.28,20.254,20.254,0,0,1-2.6-10.22A19.8,19.8,0,0,1-170.044-30.1a19.584,19.584,0,0,1,7.644-7.252,22.718,22.718,0,0,1,10.976-2.632,22.763,22.763,0,0,1,10.948,2.632A19.535,19.535,0,0,1-132.8-30.1a19.8,19.8,0,0,1,2.772,10.388,19.993,19.993,0,0,1-3.36,11.4,19.729,19.729,0,0,1-9.016,7.364,4.74,4.74,0,0,0,3.752,2.016,7.7,7.7,0,0,0,2.968-.756,19.256,19.256,0,0,0,3.528-2.044Zm-32.648-24.92a11.347,11.347,0,0,0,1.316,5.432,10.315,10.315,0,0,0,3.528,3.892A8.661,8.661,0,0,0-151.256-8.9a8.3,8.3,0,0,0,4.676-1.428,9.882,9.882,0,0,0,3.388-3.864,11.925,11.925,0,0,0,1.232-5.46,11.8,11.8,0,0,0-1.232-5.4,9.751,9.751,0,0,0-3.36-3.836,8.379,8.379,0,0,0-4.7-1.4,8.786,8.786,0,0,0-4.788,1.4,10.148,10.148,0,0,0-3.528,3.836A11.185,11.185,0,0,0-160.888-19.656Zm46.424,3.416a7.431,7.431,0,0,0,1.9,5.32A6.276,6.276,0,0,0-107.8-8.9a5.9,5.9,0,0,0,4.592-1.988,7.688,7.688,0,0,0,1.792-5.348V-39.256h11.648V-16.24A17.677,17.677,0,0,1-91.98-7.252a15.009,15.009,0,0,1-6.3,5.936,20.56,20.56,0,0,1-9.52,2.1,21.036,21.036,0,0,1-9.632-2.1,15.3,15.3,0,0,1-6.412-5.936,17.332,17.332,0,0,1-2.268-8.988V-39.256h11.648Zm30.688-23.016h11.648V0H-83.776Zm46.648,14.28a14.056,14.056,0,0,0-4.4-3.892A10.116,10.116,0,0,0-46.48-30.3a8.729,8.729,0,0,0-4.76,1.344,9.422,9.422,0,0,0-3.36,3.724,11.46,11.46,0,0,0-1.232,5.348A11.46,11.46,0,0,0-54.6-14.532a9.631,9.631,0,0,0,3.36,3.752,8.6,8.6,0,0,0,4.76,1.372,11.047,11.047,0,0,0,4.788-1.232A15.616,15.616,0,0,0-37.128-14l6.72,7.168a23.862,23.862,0,0,1-7.7,5.544A21.256,21.256,0,0,1-47.04.784a21.278,21.278,0,0,1-10.612-2.66,19.265,19.265,0,0,1-7.42-7.364A20.839,20.839,0,0,1-67.76-19.768,19.847,19.847,0,0,1-65.016-30.1a19.484,19.484,0,0,1,7.56-7.252,22.163,22.163,0,0,1,10.808-2.632,22.225,22.225,0,0,1,8.848,1.9,21.583,21.583,0,0,1,7.392,5.1ZM12.264,0H-1.68l-9.184-14.448-4.368,4.816V0H-26.88V-39.256h11.648V-23.52l13.16-15.736h13.44l-14.28,15.9Z" transform="translate(174 54)" fill="#232323"></path>
    <path id="Path_123" data-name="Path 123" d="M-98.477-13.3a7.439,7.439,0,0,1,3.572.845,6.21,6.21,0,0,1,2.47,2.366,6.661,6.661,0,0,1,.893,3.439,6.556,6.556,0,0,1-.9,3.43,6.331,6.331,0,0,1-2.5,2.366A7.564,7.564,0,0,1-98.572,0h-5.434V-13.3Zm.057,11.058A4.335,4.335,0,0,0-96.225-2.8,3.976,3.976,0,0,0-94.7-4.361a4.617,4.617,0,0,0,.551-2.27,4.6,4.6,0,0,0-.57-2.29A4.035,4.035,0,0,0-96.282-10.5a4.478,4.478,0,0,0-2.232-.561h-2.945v8.816Zm11-11.058h9.747v2.223h-7.2V-7.79h6.46v2.223h-6.46v3.344h7.429V0h-9.975Zm14.459,0h2.546v11h5.738V0H-72.96Zm12.179,0h2.546V0h-2.546Zm6.118,0h2.736l3.914,10.469L-44.061-13.3h2.622L-46.759,0H-49.4Zm16.815,0H-28.1v2.223h-7.2V-7.79h6.46v2.223H-35.3v3.344h7.429V0h-9.975ZM-15.067,0l-2.3-3.933a4.24,4.24,0,0,1-.475.019h-3V0h-2.546V-13.3h5.548a5.98,5.98,0,0,1,3.99,1.2,4.2,4.2,0,0,1,1.406,3.382,5,5,0,0,1-.675,2.66,4.129,4.129,0,0,1-1.967,1.653L-12.16,0Zm-5.776-6.156h3a3.386,3.386,0,0,0,2.2-.627,2.274,2.274,0,0,0,.76-1.862,2.2,2.2,0,0,0-.76-1.824,3.461,3.461,0,0,0-2.2-.608h-3ZM2.793-13.3-2.052-4.351V0H-4.6V-4.256L-9.557-13.3h2.584l3.629,6.251L.228-13.3ZM21.242-9.88a9.626,9.626,0,0,0-2.1-.969,6.339,6.339,0,0,0-1.891-.342,2.648,2.648,0,0,0-1.444.342,1.072,1.072,0,0,0-.532.95,1.251,1.251,0,0,0,.371.921,2.9,2.9,0,0,0,.931.608,14.775,14.775,0,0,0,1.53.523,16.71,16.71,0,0,1,2.213.8,3.948,3.948,0,0,1,1.472,1.178A3.242,3.242,0,0,1,22.4-3.819,3.508,3.508,0,0,1,21.746-1.7,4.107,4.107,0,0,1,19.941-.323a6.842,6.842,0,0,1-2.632.475,8.28,8.28,0,0,1-3.04-.58,8.633,8.633,0,0,1-2.584-1.549l1.064-2.166A7.788,7.788,0,0,0,15.01-2.679a6.014,6.014,0,0,0,2.337.532,2.968,2.968,0,0,0,1.672-.409,1.274,1.274,0,0,0,.608-1.111,1.274,1.274,0,0,0-.371-.941,2.757,2.757,0,0,0-.94-.6q-.57-.228-1.558-.513a18.452,18.452,0,0,1-2.2-.779,3.829,3.829,0,0,1-1.463-1.15,3.169,3.169,0,0,1-.608-2.023,3.391,3.391,0,0,1,.617-2.024,3.976,3.976,0,0,1,1.748-1.34,6.7,6.7,0,0,1,2.613-.475,8.829,8.829,0,0,1,2.556.38A8.629,8.629,0,0,1,22.268-12.1Zm5.472-3.42h9.747v2.223h-7.2V-7.79h6.46v2.223H29.26v3.344h7.429V0H26.714ZM49.495,0,47.2-3.933a4.24,4.24,0,0,1-.475.019h-3V0H41.173V-13.3h5.548a5.98,5.98,0,0,1,3.99,1.2,4.2,4.2,0,0,1,1.406,3.382,5,5,0,0,1-.675,2.66,4.129,4.129,0,0,1-1.966,1.653L52.4,0ZM43.719-6.156h3a3.386,3.386,0,0,0,2.2-.627,2.274,2.274,0,0,0,.76-1.862,2.2,2.2,0,0,0-.76-1.824,3.461,3.461,0,0,0-2.2-.608h-3ZM55.062-13.3H57.8L61.712-2.831,65.664-13.3h2.622L62.966,0H60.325Zm16.815,0h2.546V0H71.877ZM89.224-9.462a5.009,5.009,0,0,0-1.662-1.273,4.5,4.5,0,0,0-1.948-.456,4.461,4.461,0,0,0-2.261.589,4.278,4.278,0,0,0-1.615,1.624,4.513,4.513,0,0,0-.589,2.271,4.513,4.513,0,0,0,.589,2.271A4.348,4.348,0,0,0,83.353-2.8a4.406,4.406,0,0,0,2.261.6,4.75,4.75,0,0,0,1.91-.418,5.479,5.479,0,0,0,1.7-1.159l1.5,1.672A7.851,7.851,0,0,1,88.293-.428,6.854,6.854,0,0,1,85.481.19a6.96,6.96,0,0,1-3.515-.912A6.685,6.685,0,0,1,79.458-3.2a6.77,6.77,0,0,1-.912-3.467,6.613,6.613,0,0,1,.931-3.458,6.688,6.688,0,0,1,2.537-2.451,7.2,7.2,0,0,1,3.563-.893,7.2,7.2,0,0,1,2.793.57,6.86,6.86,0,0,1,2.337,1.577ZM94.715-13.3h9.747v2.223h-7.2V-7.79h6.46v2.223h-6.46v3.344h7.429V0H94.715Z" transform="translate(172.381 84.613)" fill="#9a9d9f"></path>
    <path id="Path_122" data-name="Path 122" d="M43.96-26.6a37.52,37.52,0,0,0-6.888-3.136,19.9,19.9,0,0,0-6.16-1.288,4.2,4.2,0,0,0-2.38.588,1.935,1.935,0,0,0-.868,1.708,2.673,2.673,0,0,0,1.68,2.436,29.815,29.815,0,0,0,5.32,1.876,51.382,51.382,0,0,1,6.832,2.38,12.58,12.58,0,0,1,4.676,3.668,10.031,10.031,0,0,1,1.988,6.5A11.072,11.072,0,0,1,46-4.956,12.918,12.918,0,0,1,40.18-.728a22.854,22.854,0,0,1-8.2,1.4A31.489,31.489,0,0,1,21.868-1.036,28.265,28.265,0,0,1,13.1-5.712l4.368-8.848a26.146,26.146,0,0,0,7.252,4.34,19.945,19.945,0,0,0,7.364,1.764,5.206,5.206,0,0,0,2.968-.728,2.362,2.362,0,0,0,1.064-2.072,2.708,2.708,0,0,0-1.736-2.492,29.616,29.616,0,0,0-5.376-1.82,49.044,49.044,0,0,1-6.776-2.212,12.044,12.044,0,0,1-4.648-3.556,9.712,9.712,0,0,1-1.96-6.328A11.134,11.134,0,0,1,17.64-34.3a12.724,12.724,0,0,1,5.684-4.34,22.29,22.29,0,0,1,8.54-1.512,31.579,31.579,0,0,1,8.792,1.26,29.065,29.065,0,0,1,7.616,3.332Zm8.456-12.656H84.5v8.96H64.064v6.16H82.6v8.96H64.064V-8.96h21V0H52.416Zm64.848,0H127.9V0h-9.912L101.36-21.84V0h-10.7V-39.256h9.968l16.632,21.9Zm34.44,0a24.066,24.066,0,0,1,11.06,2.436,17.773,17.773,0,0,1,7.42,6.888,19.809,19.809,0,0,1,2.632,10.276,19.636,19.636,0,0,1-2.688,10.3,17.972,17.972,0,0,1-7.56,6.916A24.851,24.851,0,0,1,151.312,0h-16.8V-39.256Zm.336,30.128a8.1,8.1,0,0,0,6.44-2.856,11.168,11.168,0,0,0,2.464-7.56,10.923,10.923,0,0,0-2.632-7.616,8.782,8.782,0,0,0-6.832-2.912h-5.32V-9.128Z" transform="translate(174 54)" fill="#0994ff"></path>
    </g>
  </g>
</svg>